<svg xmlns="http://www.w3.org/2000/svg" version="1.1" xmlns:xlink="http://www.w3.org/1999/xlink" xmlns:svgjs="http://svgjs.dev/svgjs" viewBox="0 0 8.752673150494145 7.141831413248095"><g transform="matrix(0.8435526080675555,0,0,0.8435526080675555,1.243326892527905,5.029961990112579)"><g transform="matrix(1,0,0,1,0,0)" clip-path="url(#SvgjsClipPath31715)"><g clip-path="url(#d545e2e72-e852-4959-a0e4-cab680a5662cc704f581-b7fd-41d5-81b7-d54fd5e18d15)"><path d=" M 5.867380544548006 -3.894234481812368 C 6.0685535221409985 -3.8223185998171996 6.281393326744057 -3.9033480822427222 6.342280688374089 -4.075584491932334 C 6.403345357405489 -4.247466286819209 6.289726774608388 -4.445234962305922 6.088482874054847 -4.517079921340543 C 5.886848897218295 -4.588818495934342 5.674150938536332 -4.50778901350882 5.613121730985206 -4.335942680102219 C 5.552234369355174 -4.163670808932333 5.665888413632548 -3.966114902327263 5.867380544548006 -3.894234481812368 M 6.521112933394618 -2.0777910777499846 C 6.395295601383347 -2.1333592173389535 6.26224412739623 -2.140309667472609 6.1488028520004985 -2.1065148767717234 C 6.301499986059274 -2.347972095955699 6.2967126862223175 -2.696061986322846 6.111071836989226 -2.9882645837785597 C 5.923232375979165 -3.28298494633371 5.606667741575382 -3.4344409285829034 5.321841132016609 -3.3945822247552067 C 5.332976036822567 -3.512775338507621 5.305387005169588 -3.641323204499971 5.232407278766208 -3.7568212457515804 C 5.076057612239236 -4.003739532897713 4.779103176426839 -4.095549305326457 4.569135751725955 -3.96221413949715 C 4.51076615519536 -3.925085969650532 4.466581150774266 -3.8737377462141396 4.434594895567342 -3.8147653045188905 C 4.302039882304058 -3.825084595278552 4.17710908729963 -3.7907578823735606 4.082746088291177 -3.7204023055104374 C 4.0798737083890035 -3.724196683899729 4.077462327730388 -3.728132908210115 4.074519024867667 -3.7318918251191326 C 3.79345133221791 -4.088066932988695 3.319863263161956 -4.182855469760433 3.016632145341105 -3.9431713245901454 C 2.9425280078809894 -3.8844090660690536 2.8830311591201645 -3.809291563625001 2.8427999690391745 -3.7237002231758964 C 2.7749266957952137 -3.7754385228953 2.6977979761998037 -3.814694381558343 2.6120166554175985 -3.8361840386042365 C 2.2192098384252503 -3.9356180292918364 1.8058353628741273 -3.6423870489081835 1.6888479394510199 -3.1820970349548867 C 1.6557824891864943 -3.0522009327903508 1.6497475641362274 -2.9168979131633526 1.6711171993141438 -2.7845738410861296 C 1.3130626329900728 -2.564180741184763 1.112031501318175 -2.08786213814773 1.2029192752598 -1.5858694233925013 C 1.317708086905934 -0.9583076069879173 1.8434599934445774 -0.5287272349516892 2.3780063470911106 -0.6268136893888858 C 2.4114110615089848 -0.6329130639959715 2.4441065463213842 -0.640998281498387 2.475915494126939 -0.6508211115342166 C 2.635988616082654 -0.4582652736477444 2.902942639583457 -0.3362423200257654 3.2017765338503628 -0.3456396122983092 C 3.5179865534514065 -0.35521421197222214 3.788983185703417 -0.510429111130434 3.9302262616337704 -0.7327725924468567 C 4.0616477304575875 -0.6467320875383735 4.2062693597354315 -0.5827885559318853 4.358352712978775 -0.5434792107455708 C 5.027404461303648 -0.36968249592391356 5.689966758738425 -0.6922755819742323 5.836316287828199 -1.263808259546289 C 5.886955281659116 -1.459803861019315 5.869047234120871 -1.6593101490394413 5.798372503935284 -1.8443481531078776 C 5.8294908276668425 -1.8529350709913475 5.859871937848037 -1.86399891790745 5.889224816396636 -1.8774337142032875 C 5.805961260713868 -1.6655868310478947 5.931814054205413 -1.4110443256429046 6.177633035463058 -1.3020002738011192 C 6.42831023951821 -1.1907576101823598 6.708846009963859 -1.274056627345403 6.803599085255324 -1.488669505962148 C 6.898564929428432 -1.7026440779339653 6.771967444851138 -1.9665129526509522 6.521112933394618 -2.0777910777499846 M 1.127102630434519 -3.3734826439923244 C 1.0082712100371767 -3.437455154406172 0.8508222376217192 -3.376674177216962 0.7755729764808177 -3.2377360975044027 C 0.7003946383004637 -3.0984079415088326 0.7355724267320262 -2.933795750078077 0.8543329241688205 -2.8699296241050503 C 0.9734834978886266 -2.8060280366517496 1.1307906243829886 -2.866844475321234 1.206110808484437 -3.0059953239154353 C 1.2813600696253387 -3.144933403627995 1.246182281193776 -3.30954559505875 1.127102630434518 -3.3734826439923244" fill="#0094ff" transform="matrix(1,0,0,1,0,0)" fill-rule="nonzero" opacity="0.6"></path></g><g clip-path="url(#c545e2e72-e852-4959-a0e4-cab680a5662cc704f581-b7fd-41d5-81b7-d54fd5e18d15)"><path d=" M 5.835394289341081 -3.8046587826408707 C 5.893448074095714 -3.7837308000609666 5.954678963827014 -3.7729818037445 6.01638968465831 -3.772885296315589 C 6.210647673597921 -3.772885296315589 6.3737704828571795 -3.8792342756565708 6.431891849025859 -4.043704621166231 C 6.510403566351945 -4.264736027712526 6.370720795553637 -4.5172572287419115 6.120362744820949 -4.606655620512039 C 6.061354841645427 -4.627648816834101 6.000502941495669 -4.638287260916226 5.939402810983995 -4.638287260916226 C 5.7451093605641095 -4.638287260916226 5.58188016686403 -4.532080127496339 5.523475108853161 -4.367609781986679 C 5.445318006329812 -4.146471990999563 5.585249007490036 -3.89387986700963 5.835394289341081 -3.8046587826408707 M 5.70276835311725 -4.304062809336116 C 5.733797148356782 -4.391546281171461 5.826706226674012 -4.448071880727822 5.939402810983995 -4.448071880727822 C 5.978694131127312 -4.448071880727822 6.018127297191724 -4.44115689207444 6.056496618847922 -4.427468760688772 C 6.208165369978759 -4.373354541791027 6.296145302537937 -4.229735546682332 6.252634066242043 -4.107251593816794 C 6.2216761939630585 -4.019661737540627 6.128944423047198 -3.963029753543446 6.01638968465831 -3.963029753543446 C 5.976478344505314 -3.9631526910887844 5.936888350270951 -3.9701709173394213 5.899366799754929 -3.9837747195035904 C 5.747627125663546 -4.037888938401336 5.6594698857029995 -4.181649779431125 5.70276835311725 -4.3040628093361155 M 1.2897289789699438 -2.96067555212558 C 1.3416445860907165 -3.056527933305531 1.3546589493511831 -3.1676287510031953 1.3254032281253383 -3.265431513598202 C 1.3001901156507008 -3.349581606287815 1.2457922049107655 -3.4176676484134187 1.1722096333427308 -3.4572071989186517 C 1.1269131965619494 -3.4815815397438974 1.076233760975542 -3.4942239681064438 1.0247962598447447 -3.493980753962532 C 0.8920284776998182 -3.493980753962532 0.7613883843713174 -3.4111427360430477 0.6918484215544897 -3.282878561892888 C 0.6400391988745375 -3.186707027390473 0.6270602970943446 -3.075428902291441 0.6564578642412858 -2.977555216735886 C 0.6816000537553757 -2.8936178929279155 0.7358915800544898 -2.82560277376286 0.8093677671817032 -2.7860986847379006 C 0.8546550036808138 -2.761774629519223 0.9053046075687303 -2.7491579411861315 0.9567102177191431 -2.7493960526545673 C 1.0895489228246158 -2.7493960526545673 1.220224477633391 -2.8323404550148727 1.2897289789699438 -2.96067555212558 M 1.1224926379989304 -3.051208711264468 C 1.073981332984438 -2.961562089132424 0.9705756565061785 -2.91549762625682 0.8993690041164846 -2.9536541790313775 C 0.8627018335134257 -2.973406223543857 0.8460703992650365 -3.0072364757250156 0.8386234884075483 -3.0321658963574634 C 0.8236587437320249 -3.0820601991026324 0.83117657755006 -3.140500718593775 0.8591911469663249 -3.1924163257145475 C 0.8958228560891095 -3.2600768300768657 0.9608592109111707 -3.3038008352544015 1.0247962598447447 -3.3038008352544015 C 1.0454348413640682 -3.3038008352544015 1.0646904251527154 -3.299084458377992 1.0821374734474007 -3.2896517046251748 C 1.1190174129321022 -3.269864198632421 1.1356843086607658 -3.235927562010441 1.1431666809985277 -3.2109272184174458 C 1.1580605027135031 -3.1611747615933723 1.150507207415194 -3.103017933944419 1.1224926379989304 -3.0512087112644677 M 6.877784501988013 -1.8628235843305014 C 6.814663067100734 -1.9944920605869414 6.701682790948562 -2.101656653974219 6.559553178011365 -2.164742627381223 C 6.478452772625294 -2.2005232609774383 6.3940189880934915 -2.2197433832858118 6.308308590271834 -2.221835610621963 C 6.395189216942525 -2.477796575237903 6.355011359792365 -2.781736922664229 6.191285705368453 -3.039364576853035 C 6.012630767749292 -3.3196521169367688 5.71638556154237 -3.4942289843244483 5.417267975433274 -3.495931135377589 C 5.408757220167574 -3.6046560338969114 5.372941125091085 -3.7124234724488425 5.312762993066529 -3.80767300846414 C 5.19141380756975 -3.999342309343768 4.988609601884164 -4.118421960103026 4.783571322941332 -4.118421960103026 C 4.688215402485213 -4.118421960103026 4.596441091536743 -4.09218046470045 4.5181421430923 -4.042392546396102 C 4.464716757898046 -4.008267997048452 4.418668396087757 -3.9637871364257338 4.382714749926842 -3.911575145666232 C 4.283174374798421 -3.910724070139662 4.1868964558551856 -3.8874258775998074 4.103526515731595 -3.8448011783107576 C 3.918169358340695 -4.049945841694411 3.6631303922118725 -4.170585797585715 3.408836117168799 -4.170585797585715 C 3.240252239947383 -4.170585797585715 3.084221726742876 -4.1177481919778245 2.957624242165582 -4.017711356125571 C 2.900557474046328 -3.97264085078003 2.850869776664287 -3.9189451161663538 2.810352714588691 -3.8585602326569735 C 2.755387760344172 -3.8894884642076093 2.6965480408148363 -3.9129575700109607 2.6353857709180004 -3.9283484258357166 C 2.5769552774425617 -3.943101500140531 2.516924125236401 -3.9505696613376067 2.456659910338291 -3.950582773967359 C 2.0680730094985202 -3.950582773967359 1.7064368336668003 -3.637245134268489 1.5966480907392648 -3.2053243045341935 C 1.565493386004859 -3.0831676980187277 1.5561299531135178 -2.956473248358199 1.5689881361257387 -2.831063841725018 C 1.2017845078910399 -2.5720177283252617 1.0179521941519112 -2.073677546038229 1.109371890297642 -1.5687415284202784 C 1.2207563998374962 -0.9597260661988667 1.689947245339505 -0.5177341760668259 2.2249900597098717 -0.5177341760668259 C 2.2988721093109445 -0.5177238733762435 2.372499139463535 -0.526400579645439 2.444354776683298 -0.5435855951863902 C 2.622796945420818 -0.35876035999959655 2.8891481237569674 -0.2499645385197269 3.1696838942026173 -0.2499645385197269 C 3.1813507212126817 -0.2499645385197269 3.193017548222746 -0.2501773074013691 3.204648913752537 -0.25053192220410647 C 3.50468849834875 -0.25964552263446095 3.78408950142564 -0.3934771491875999 3.9557585274308718 -0.6055722627049089 C 4.074550883959036 -0.5375059877736525 4.201926708608385 -0.48566116476328514 4.334487136754541 -0.45142120795490914 C 4.461259691171589 -0.418309639182322 4.5917296058445185 -0.4014602045903475 4.722754884271845 -0.4012786748478252 C 5.306167157735611 -0.4012786748478252 5.8019541134429335 -0.7462124934706078 5.928374290618858 -1.2399426833220528 C 5.937026891805653 -1.273418320700475 5.943941880459035 -1.3072840343619072 5.949048333618455 -1.3413270554247094 C 6.004670642389174 -1.2886309238202092 6.06895717912537 -1.245913185936725 6.139086406405491 -1.215048724169879 C 6.2238038827794835 -1.1774240935994285 6.316074654451786 -1.1576011261264019 6.405934045465472 -1.1575302031658543 L 6.4059695069457465 -1.1575302031658543 C 6.625192377998079 -1.1575302031658543 6.810939611671991 -1.2696948652717306 6.890550634886563 -1.4500519539440315 C 6.947962771449768 -1.5794154339826778 6.943388240494453 -1.725977731954094 6.877784501988013 -1.8628235843305019 M 5.8491178822070236 -1.9636405727487776 C 5.824358821636339 -1.9523283379218586 5.798732631222262 -1.9430194256242874 5.772485623335445 -1.9358033107338821 L 5.672448787483192 -1.9075050494754282 L 5.709506034369262 -1.8103760550056225 C 5.775783541000904 -1.6368630320261555 5.787804982813706 -1.4560804055905696 5.744222823557265 -1.287354682448059 C 5.639292303427234 -0.877632739365132 5.2192510695846455 -0.5914585935559558 4.722754884271847 -0.5914585935559558 C 4.609242685915568 -0.5914585935559558 4.494666643151076 -0.6062814923103836 4.38221828920301 -0.6355017520559558 C 4.2401600740842476 -0.6721633335439221 4.10507844430415 -0.7318814893131473 3.9823546376361842 -0.8122772312206079 L 3.9016797700134003 -0.8651148368284973 L 3.8499769317742705 -0.7836952781199629 C 3.720790759136993 -0.5803236887499974 3.4713192454111494 -0.4488679813751997 3.1987977695073675 -0.440640917951689 C 2.9400353479498014 -0.43156277900160855 2.695883056265021 -0.534932993999595 2.549037066451415 -0.711566627243152 L 2.5084691330182425 -0.7603616240998345 L 2.447865463230401 -0.7416379625152936 C 2.3756808575042907 -0.7192985426927847 2.300552387469141 -0.7079187012491159 2.2249900597098717 -0.707878633294682 C 1.788991159744094 -0.707878633294682 1.3898012763024714 -1.0927066172254354 1.296537583182504 -1.6027490880028061 C 1.2147279481909585 -2.054563808170677 1.3852976683077043 -2.496945774585729 1.7209760405790382 -2.70357982014088 L 1.7752675668781523 -2.7369845345587542 L 1.7649482761184903 -2.799857739084116 C 1.7455659722793895 -2.9192774114552016 1.7510346856215069 -3.0414120094291475 1.7810123266825 -3.158621535013662 C 1.8696305658866055 -3.5073142705454625 2.153818868800452 -3.7604383167395024 2.456659910338291 -3.7604383167395024 C 2.501093145121302 -3.7604383167395024 2.5455618413845875 -3.7549063258167967 2.588931231759385 -3.743913266931934 C 2.6585775790170336 -3.726430757156974 2.7246068552867593 -3.694196271588134 2.7851396021140533 -3.648060885751983 L 2.878438756714294 -3.5768896948425635 L 2.9287231357424743 -3.682919520861081 C 2.963723616772667 -3.7566084768699373 3.0131214587940036 -3.8190916051122876 3.0756045870363535 -3.8685249086138973 C 3.168229973511393 -3.941717403898921 3.283479784401086 -3.980441340357858 3.408836117168799 -3.980441340357858 C 3.6269951438129198 -3.980441340357858 3.847955627398666 -3.865475221310355 4.000794607378536 -3.6716073086537544 L 4.063845119305267 -3.5876345233655105 L 4.139626302650274 -3.6441246614415967 C 4.215620254876924 -3.7008275683993257 4.318848623953816 -3.728239292650936 4.427218907670401 -3.719905844786604 L 4.4887800374256335 -3.7150830834693735 L 4.518177604572574 -3.7693746097684877 C 4.5444545614554235 -3.8177086073816113 4.578710351399868 -3.855581468313978 4.62012936035961 -3.881858425196828 C 4.668534280933281 -3.9126389900744445 4.723570498318144 -3.9282420413948955 4.783571322941332 -3.9282420413948955 C 4.924034246305662 -3.9282420413948955 5.065206399275468 -3.843063565777344 5.152051564465886 -3.7059694830390195 C 5.210172930634565 -3.613946941728634 5.2368754252807 -3.5064986564991663 5.227158979685691 -3.40341213334337 L 5.215882228958638 -3.2836587144589107 L 5.334997341198171 -3.3003610716678478 C 5.3604941455149975 -3.3039072196952226 5.386735640917575 -3.3057157551891843 5.41297713632015 -3.3057157551891843 C 5.64918605642361 -3.3057157551891843 5.885962360211451 -3.1644726792588314 6.03085796861 -2.93723551366463 C 6.192420472737213 -2.682870315661009 6.207207910011368 -2.376731356457711 6.068447137700177 -2.157295716523735 L 5.986318349386168 -2.0274357757612567 Z M 6.716647535624085 -1.5270388276183464 C 6.667781615806855 -1.4164344706445147 6.548808349488418 -1.3477455833542575 6.4059695069457465 -1.3477455833542575 L 6.405934045465472 -1.3477455833542575 C 6.342457995775457 -1.3477455833542575 6.276854257269016 -1.3619656369440323 6.216179664520626 -1.38888090047181 C 6.0172052987046065 -1.4771445248731783 5.91241662449567 -1.676473505491936 5.97773667115992 -1.842610540574463 L 6.02830474203029 -1.9714066369287289 L 6.175966345890193 -2.0153434109879074 C 6.270683959701383 -2.043499826325266 6.3832741595705444 -2.0346699177371024 6.482566304337049 -1.990839528118745 C 6.583241446834231 -1.9461580629738178 6.662675162647434 -1.8714761855172966 6.706292783384149 -1.7805529500953972 C 6.747428100501701 -1.694771629313192 6.751151555930446 -1.6047703923784105 6.716647535624085 -1.5270388276183464" fill="#382d5e" transform="matrix(1,0,0,1,0,0)" fill-rule="nonzero" opacity="0.5"></path></g><g clip-path="url(#b545e2e72-e852-4959-a0e4-cab680a5662cc704f581-b7fd-41d5-81b7-d54fd5e18d15)"><path d=" M 5.8083726413724825 -2.605706134585326 C 5.705603162677218 -2.6692768419097685 5.594191753675806 -2.7176729642590094 5.477587953378928 -2.7493960526545673 C 5.36093845915297 -2.78094541833355 5.240336822005319 -2.7954458033486285 5.1195333870548545 -2.792446289706903 C 4.6849174848197555 -3.2793324138655136 4.311862712339886 -3.351602910663419 4.239663138502529 -3.0820601991026324 C 4.224060087182078 -3.023761525532585 4.214095411225154 -2.956455635973004 4.2078187292167 -2.885497213945227 C 4.191577371251322 -2.9112777101042444 4.175016859963479 -2.936951821822441 4.15611589097757 -2.961491166171877 C 3.9553329896675873 -3.222097584703678 3.6428818869755615 -3.353766060960118 3.3079127443097023 -3.354900828328878 C 3.6841945114944816 -3.739232351535799 4.054093212229986 -3.67657191589208 4.280869378580627 -3.6773520684581023 C 4.490588572919595 -3.678132221024125 4.665768285471929 -3.8344464260708224 4.672718735605584 -4.043740082646505 C 4.679704647219513 -4.253175585143283 4.558851922446568 -4.416723932165826 4.306153414015812 -4.435553978191187 C 3.750684787007766 -4.477114833072024 3.3358209292851444 -3.8961139402668765 3.188904016510991 -3.3497943751694583 C 2.9286876742622012 -3.326779874471793 2.661237190037566 -3.2272040378630984 2.426517652105603 -3.046315026986691 C 2.1916917297328196 -2.865355093149736 2.0272213842231586 -2.632124937389271 1.9386031450190537 -2.3863768790921718 C 1.372886150211892 -2.3835399606702716 0.7053237840585167 -2.1303449915156842 0.6040103349164078 -1.5827133516481369 C 0.5578394875999831 -1.3335964527250312 0.6851816632630251 -1.174941789980266 0.889510712600383 -1.1284163278611037 C 1.0937333774969185 -1.0816426353800255 1.2894452871277549 -1.2113252687411356 1.3435240445452261 -1.41373939814371 C 1.402177332918011 -1.6330331921565904 1.4357238932569798 -2.0066553483208387 1.9033189721466706 -2.272510065933155 C 1.8190624950162362 -1.9482857517902428 1.8667581859844322 -1.6126783024794573 2.067576548774688 -1.3521073454279295 C 2.4460923892167146 -0.8609303821561953 3.2205356569151777 -0.8229865982632805 3.7971038646861066 -1.267354407573663 C 3.9704750417444794 -1.4009023422846116 4.105441435666378 -1.563103153056752 4.200265433918391 -1.7376090974838845 C 4.323387693428856 -1.3765757668168184 4.724315189403892 -1.1149409653570785 5.013290792154695 -1.03660655543236 C 5.401664924112824 -0.9312859590193181 6.131213957784718 -1.008733831937192 6.283982014804041 -1.57225221496738 C 6.2932687572705115 -1.6073819928525048 6.300152388780279 -1.6431034197061156 6.30458513484309 -1.6791685779927419 C 6.422139941950578 -1.8397026991920158 6.647320341688901 -2.1677213917242186 6.714200693485196 -2.4113417612048926 C 6.7879605724546 -2.6803525505615733 6.429409545406696 -2.806382651454487 5.8083726413724825 -2.605706134585326" fill="#d9fae8" transform="matrix(1,0,0,1,0,0)" fill-rule="nonzero"></path></g><g clip-path="url(#b545e2e72-e852-4959-a0e4-cab680a5662cc704f581-b7fd-41d5-81b7-d54fd5e18d15)"><path d=" M 2.955461091868884 -1.905164591777361 C 2.7321601505850697 -1.8550929816308237 2.5887184628777438 -1.6750195848007126 2.628967242988452 -1.4952298798127912 C 2.636149448907787 -1.4609112763939986 2.661251623765218 -1.4331171582119366 2.694663793160465 -1.4224880679974636 C 2.7280759625557116 -1.4118589777829906 2.76462295604507 -1.4200412424438484 2.7903133297064606 -1.4439024101357743 C 2.816003703367851 -1.4677635778277005 2.8268583063449677 -1.503607821191185 2.8187216239332975 -1.5377127331807454 C 2.8048916466265346 -1.5996284777387157 2.8751408390488367 -1.6878211791795366 2.998014868197386 -1.7153747493522418 C 3.031917558694925 -1.722976248926523 3.0591895847494834 -1.748087194443845 3.0695578378917565 -1.7812485355736527 C 3.0799260910340296 -1.81440987670346 3.0718153869284914 -1.850583616747957 3.048280949373768 -1.8761434576655471 C 3.024746511819045 -1.9017032985831377 2.9893637818149763 -1.9127660924144272 2.9554610915707196 -1.9051645917105078 M 3.439191144283131 -1.7322189524822735 C 3.2881606997972224 -1.6158698357040944 3.216634894085065 -1.4558676367089265 3.2793307912090586 -1.3745544624412145 C 3.3419203038922305 -1.293170365212954 3.514936866147865 -1.3216104723925026 3.665860926192952 -1.4379241276904082 C 3.816714063277492 -1.5541313985474932 3.8883107919501962 -1.7144172893848508 3.8257922022275728 -1.7955886177314682 C 3.7630608436233057 -1.8768308690386335 3.5899378969268496 -1.8483907618590845 3.439191144283131 -1.7322189524822735 M 6.762889305901058 -2.6463449909790455 C 6.627887450498886 -2.823368700505614 6.270329344898647 -2.847021507848206 5.820394083185285 -2.709218195504407 C 5.720493885169958 -2.7666082687832825 5.613653714096777 -2.810965113929337 5.5024819125311 -2.8412058250833114 C 5.391246732547509 -2.871297466877258 5.276608038899276 -2.8869814798558497 5.161377933777882 -2.887873133123568 C 4.900523284884165 -3.1709266686686544 4.638533868621688 -3.332382788355045 4.43835381247636 -3.332382788355045 C 4.294841201808486 -3.332382788355045 4.190548988323382 -3.252807226620747 4.150406592653495 -3.1142237617109254 C 3.9918228528692783 -3.275786265838138 3.7833802718201657 -3.384582087318008 3.5490862716514884 -3.429440859864304 C 3.740861956971937 -3.5583078791791176 3.9263609602839322 -3.5834500686932076 4.092533456846732 -3.5834500686932076 C 4.127533937876926 -3.5834500686932076 4.1609386522948 -3.5825280702060898 4.192392985297618 -3.58167699467952 C 4.222109705767021 -3.5808968421134977 4.251720041795604 -3.5778116933296813 4.2811885319030925 -3.5801166895474754 C 4.5467240961929445 -3.5811096109951404 4.761372436289965 -3.7832755100357986 4.769918653035938 -4.04047762646132 C 4.7791386379071135 -4.3180346325639745 4.599951778083846 -4.5111933156151 4.313387555991659 -4.532576588220172 C 3.7036274026844977 -4.576300593397708 3.279933636373712 -3.97696611529103 3.1136902168503644 -3.439263689900133 C 2.849679496212283 -3.403341210382823 2.5900659991281465 -3.2951482340676064 2.367155134127343 -3.123372823621553 C 2.137506587874527 -2.946420037055532 1.9701638624626927 -2.7218424824818626 1.8711908710186518 -2.4822292602721228 C 1.2769273845911202 -2.460881449147324 0.6159963152489358 -2.182366983077278 0.5084061840983733 -1.6004795532652865 C 0.4559586547734948 -1.3177806325229375 0.5970953462630266 -1.0952598438051462 0.8678082866728469 -1.0336277910893656 C 0.9024004624038187 -1.0256828538552245 0.9377779095102918 -1.021662148703245 0.9732707290069837 -1.021641810756837 C 1.188841067591121 -1.021641810756837 1.379765677385 -1.1725658708019249 1.4374969672706683 -1.3886681315901672 C 1.444624724805692 -1.4154060877165766 1.4514687904985264 -1.4443781171002312 1.458632009513824 -1.4750877590173004 C 1.4996964036708285 -1.6500901641682648 1.5519666255943383 -1.8699513418655256 1.7709058048044815 -2.0607695672185833 C 1.7507991454892642 -1.7852693269718065 1.81994903202308 -1.5140953873184273 1.9905187521398258 -1.2927802889299427 C 2.202401096775492 -1.017847432367546 2.5411291563503684 -0.8601502295901722 2.9198932271543105 -0.8601502295901722 C 3.2475573048837765 -0.8601502295901722 3.5802214513318407 -0.9774213448554687 3.856466382664367 -1.190332072419074 C 3.983883604605366 -1.2888005818283426 4.095784103216791 -1.4058532132142063 4.188421299506958 -1.5375708872596512 C 4.228256974366435 -1.4712127786611169 4.274853349545538 -1.4091555812152419 4.327465763660337 -1.3523910372701198 C 4.533993424774668 -1.1279907900978188 4.804280827421203 -0.9947265472290598 4.988396833002522 -0.9448677059641648 C 5.093043661290364 -0.9164985217451633 5.214428308267415 -0.9014628541090928 5.339536410673212 -0.9014628541090928 L 5.339607333633759 -0.9014628541090928 C 5.7558541890870565 -0.9014628541090928 6.24664107607578 -1.0711814986992683 6.37575632575251 -1.54739371729548 C 6.383770620294379 -1.577004053324063 6.390260071184476 -1.6082810789255118 6.395472908784716 -1.6424304844291342 C 6.52575838731048 -1.822149266456508 6.738314500071347 -2.140096898590966 6.805939542953393 -2.3862350331710767 C 6.839876179575373 -2.5100665222870173 6.801258627557257 -2.5960251504705916 6.762889305901058 -2.6463449909790455 M 1.2692677048519903 -1.519520993800311 C 1.2631091329071655 -1.4925417429522585 1.2565361619217152 -1.4656587644973755 1.2495511218197914 -1.4388815876578298 C 1.2088413424655173 -1.286574529882036 1.060080432717129 -1.189197305050314 0.9110712926068243 -1.2233112490736633 C 0.7410689561744587 -1.261999724052326 0.6659615409546522 -1.3833843710293783 0.6996499472147163 -1.5650535344718084 C 0.7762467446060201 -1.9791727011086806 1.2456503589896715 -2.221480995819226 1.7312244083781538 -2.2774037502109326 C 1.3891629696575447 -2.0307336934267157 1.3167506269385438 -1.722041507643707 1.2692677048519903 -1.519520993800311 M 4.249982429262191 -4.340410826616711 C 4.2661174027867474 -4.340410826616711 4.282465145192947 -4.339807981452058 4.298919272039969 -4.338566829642477 C 4.483106200581835 -4.324843236776535 4.581334500940127 -4.221295714377179 4.575518818175231 -4.0470025388316895 C 4.570447826496085 -3.8948727884572953 4.440871577575796 -3.7752257540136567 4.276365770585862 -3.774622908849003 C 4.251755503275878 -3.774622908849003 4.2255140078733024 -3.775367599934752 4.197712207338681 -3.7761122910205005 C 3.971503424672419 -3.782495357469776 3.6596197056647717 -3.780793206416636 3.346352988926449 -3.5224563226223546 C 3.5175964771683965 -3.961753140253591 3.8546933086506803 -4.340410826616711 4.249982429262191 -4.340410826616711 M 4.09600868191356 -1.7495596163361382 C 4.007177673827812 -1.5969688667181847 3.88607671869295 -1.458669093650553 3.7377413467078466 -1.344412204208525 C 3.495291206076206 -1.1575656646461274 3.2048616826341796 -1.0546564488916998 2.919893227154311 -1.0546564488916998 C 2.601945595019853 -1.0546564488916998 2.3193530587183258 -1.1847291585358213 2.1445988839292776 -1.4114698634061895 C 1.7993813734643045 -1.8594547437044948 1.9525040452863642 -2.55829413545932 2.4858447086035897 -2.969292691832102 C 2.7283657721957777 -3.1561392313944996 3.0188307571180784 -3.2590484471489267 3.3037637511176734 -3.2590484471489267 C 3.621711383252131 -3.2590484471489267 3.904268458073385 -3.128940276024532 4.079093555822981 -2.90216410967389 C 4.09090222875414 -2.8868802116759027 4.099980367704221 -2.8700714700261445 4.110583350306072 -2.8540783424226825 C 4.096256912275477 -2.6438626873598823 4.111257118431274 -2.4117672989681775 4.126363709027892 -2.2574743982970835 C 4.11426064278906 -2.2274499170358375 4.103912097065354 -2.1967476526633334 4.095370375268633 -2.165522779947246 C 4.0572847454546235 -2.025095318063189 4.058029436540371 -1.8851997783832384 4.09600868191356 -1.7495596163361382 M 6.622532766977549 -2.4365903351598037 C 6.558134718800415 -2.2022608735108524 6.325081870441319 -1.868142806371564 6.227846491530692 -1.7353750242266375 L 6.213413669059275 -1.7156229797141576 L 6.210257597314912 -1.6913673272069114 C 6.206386094057184 -1.6595870615508113 6.200355520166207 -1.6281072288821905 6.192207703855572 -1.5971461741195534 C 6.091142485075379 -1.2244460164424233 5.685498612223934 -1.0916782342974969 5.339536410673212 -1.0916782342974969 C 5.231024281035531 -1.0916782342974969 5.126802990510975 -1.1043734442354998 5.038149289826596 -1.1284163278611037 C 4.838997616609206 -1.1823887008377536 4.614951984239643 -1.320865781306754 4.467396764820562 -1.4811871336243851 C 4.340373742479984 -1.619203214849827 4.204556273031514 -1.8413339272846079 4.278918997165572 -2.115805784603446 C 4.2865077539441545 -2.143784892539436 4.296968890624912 -2.173359767087745 4.310905252372496 -2.206197097821239 L 4.320444390566134 -2.2287151377950716 L 4.317962086946972 -2.2530417132628653 C 4.301117883816939 -2.4168382906473242 4.268741552327005 -2.8229786242226025 4.331508372411545 -3.0574853932729225 C 4.3474305770544595 -3.116883372731456 4.37938137078111 -3.1422028696469155 4.438353812476359 -3.1422028696469155 C 4.55509300553755 -3.1422028696469155 4.776727257248498 -3.033690740009235 5.048574965027079 -2.7291475474182554 L 5.077830686252923 -2.6963456781650352 L 5.1497111067678185 -2.697764137375985 C 5.252620322522246 -2.697764137375985 5.354572078309282 -2.684253313391686 5.452693994226753 -2.657657203186372 C 5.560467105762382 -2.62830843454483 5.663443604890269 -2.583568239029513 5.758442877147041 -2.5248184980808976 L 5.795819277355575 -2.501733074422686 L 5.837628362598328 -2.5152084369267116 C 6.0279146657472795 -2.5767341052016706 6.202846147937697 -2.609216821132427 6.343521840183671 -2.609216821132427 C 6.47405554907135 -2.609216821132427 6.574269692324973 -2.579961099906582 6.61168155401378 -2.531024257128805 C 6.618348312305247 -2.522229810020914 6.638703201982379 -2.495562776855053 6.622532766977549 -2.4365903351598037 M 3.88607671869295 -2.4639665979311403 C 3.8044089296225 -2.506307605378 3.704301170809699 -2.5046409158051333 3.611569399893838 -2.4594629899363736 C 3.527064692401488 -2.418292211338548 3.4542268119192014 -2.344851485691608 3.406495659470732 -2.25261617549958 C 3.3818089752537115 -2.2049173104376583 3.400464033730468 -2.146237228624814 3.44816289879239 -2.1215505444077936 C 3.4958617638543124 -2.0968638601907736 3.5545418456671563 -2.11551891866753 3.5792285298841766 -2.163217783729452 C 3.6074204067018094 -2.2177220789102083 3.6502933363527745 -2.2619425448115766 3.696712414031116 -2.2845669692262303 C 3.7184148399586516 -2.2951699518280817 3.7603657711225003 -2.310170157983879 3.7966074039622746 -2.2912337275176955 C 3.84402945221345 -2.2684113679936844 3.9010032235023346 -2.2874291021004454 3.925208369465102 -2.334160479819288 C 3.94941351542787 -2.3808918575381313 3.9320771158718335 -2.4383995446405273 3.8860767186929497 -2.4639665979311403 M 5.007758801231991 -1.7126442153711627 C 5.0416251118757405 -1.7527851363595763 5.036544968951609 -1.812778449204235 4.996411127544389 -1.8466531493256704 C 4.845735297861219 -1.973676171666249 4.646938239446567 -1.9772223196936243 4.543638947409128 -1.8548092897886335 C 4.51153148118444 -1.8145522588930034 4.517294037616781 -1.7560538216864536 4.556639408483449 -1.722835457559579 C 4.595984779350118 -1.689617093432704 4.65462124322965 -1.6937449640640097 4.688924632090689 -1.7321480295217269 C 4.7181094303559865 -1.766616588347813 4.803323367453812 -1.7607299826223706 4.873749867277483 -1.7012610802032886 C 4.890879899416399 -1.6867744003020988 4.912592920243136 -1.6788330639812088 4.935027305190526 -1.6788494246702776 C 4.962084414639398 -1.6788494246702776 4.988928755206628 -1.690338944278973 5.007758801231991 -1.7126442153711627 M 5.437055481426029 -1.7272543452439484 C 5.3853046927880985 -1.718290905640997 5.350615984730337 -1.6690758049640806 5.359572147027881 -1.6173237563953182 C 5.36862603536045 -1.5656426235044059 5.417743931782636 -1.5309954077642005 5.469467274396238 -1.5398049605168973 C 5.560177740936495 -1.5557271651598117 5.636774538327799 -1.5175706123852546 5.644434218066929 -1.4731728390825176 C 5.654356929667863 -1.4223778065138721 5.703062256269159 -1.388831206836361 5.754057410112067 -1.3976680515053177 C 5.805052563954974 -1.4065048961742739 5.839630558464998 -1.454483490202517 5.83188360279398 -1.5056555550132744 C 5.804471878542371 -1.6634236807511953 5.631242547405094 -1.760623598181549 5.437055481426029 -1.7272543452439484 M 5.115739008665565 -1.414519550709732 C 4.986340067146644 -1.4495200317399255 4.92665839584592 -1.3966115031714872 4.92665839584592 -1.3966115031714872 C 4.9152397991977725 -1.3544123416457232 5.029283919758158 -1.2336305398333254 5.0640361704264345 -1.2240914016396856 C 5.09896572849608 -1.2146586478868673 5.258436005287142 -1.2613259559271253 5.26985460193529 -1.3035605789331628 C 5.26985460193529 -1.3035605789331628 5.2450315657436635 -1.379412685238718 5.115739008665565 -1.414519550709732" fill="#382d5e" transform="matrix(1,0,0,1,0,0)" fill-rule="nonzero"></path></g></g><g><path d=" M 0.0405 1.179 Q 0.0495 1.05675 0.056625 0.9217500000000001 Q 0.06375 0.7867500000000001 0.06825 0.6540000000000001 Q 0.07275 0.5212500000000001 0.076125 0.40425000000000005 Q 0.0795 0.2872500000000001 0.080625 0.1991250000000001 Q 0.08175 0.1110000000000001 0.08175 0.06600000000000006 Q 0.12825 0.051000000000000045 0.189 0.044625000000000026 Q 0.24975 0.03825000000000012 0.30675 0.03825000000000012 Q 0.309 0.06225000000000003 0.3105 0.09487500000000004 Q 0.312 0.12750000000000006 0.312 0.15450000000000008 Q 0.32625 0.13575000000000004 0.3615 0.10837500000000011 Q 0.39675 0.08100000000000007 0.45 0.06000000000000005 Q 0.50325 0.039000000000000035 0.57225 0.039000000000000035 Q 0.7245 0.039000000000000035 0.797625 0.13537500000000002 Q 0.87075 0.23175000000000012 0.87075 0.4035000000000001 Q 0.87075 0.5242500000000001 0.8250000000000001 0.6120000000000001 Q 0.77925 0.6997500000000001 0.7005 0.7466250000000001 Q 0.62175 0.7935000000000001 0.5205 0.7935000000000001 Q 0.47475 0.7935000000000001 0.427875 0.7818750000000001 Q 0.381 0.7702500000000001 0.344625 0.7526250000000001 Q 0.30825 0.7350000000000001 0.29475 0.7185000000000001 Q 0.29475 0.7365 0.292875 0.7785000000000001 Q 0.291 0.8205000000000001 0.28875 0.874125 Q 0.28650000000000003 0.9277500000000001 0.283125 0.9832500000000001 Q 0.27975 1.03875 0.27675 1.085625 Q 0.27375 1.1325 0.27075 1.1587500000000002 Q 0.231 1.167 0.186375 1.171125 Q 0.14175000000000001 1.1752500000000001 0.10275000000000001 1.1771250000000002 Q 0.06375 1.179 0.0405 1.179 M 0.4845 0.561 Q 0.53625 0.561 0.5715 0.54 Q 0.60675 0.5190000000000001 0.62475 0.4796250000000001 Q 0.64275 0.4402500000000001 0.64275 0.38550000000000006 Q 0.64275 0.31200000000000006 0.608625 0.2722500000000001 Q 0.5745 0.23250000000000004 0.49875 0.23250000000000004 Q 0.453 0.23250000000000004 0.41550000000000004 0.24675000000000002 Q 0.378 0.2610000000000001 0.352125 0.2808750000000001 Q 0.32625 0.3007500000000001 0.31275000000000003 0.31800000000000006 Q 0.31275000000000003 0.3285000000000001 0.312 0.35137500000000005 Q 0.31125 0.3742500000000001 0.3105 0.40162500000000007 Q 0.30975 0.42900000000000005 0.309 0.45300000000000007 Q 0.30825 0.4770000000000001 0.30825 0.4905000000000001 Q 0.321 0.5032500000000001 0.3435 0.5197500000000002 Q 0.366 0.5362500000000001 0.4005 0.5486250000000001 Q 0.435 0.561 0.4845 0.561 M 1.288505859375 0.8557500000000001 Q 1.196255859375 0.8557500000000001 1.119755859375 0.8306250000000001 Q 1.043255859375 0.8055000000000001 0.997880859375 0.7488750000000001 Q 0.952505859375 0.69225 0.952505859375 0.5985 Q 0.952505859375 0.50475 1.005380859375 0.4473750000000001 Q 1.058255859375 0.39000000000000007 1.144880859375 0.3641250000000001 Q 1.231505859375 0.33825000000000005 1.3312558593750001 0.33825000000000005 Q 1.370255859375 0.33825000000000005 1.4062558593749999 0.34425000000000006 Q 1.442255859375 0.35025000000000006 1.469630859375 0.3585000000000001 Q 1.497005859375 0.3667500000000001 1.509005859375 0.3742500000000001 Q 1.5082558593750002 0.35475000000000007 1.501130859375 0.3330000000000001 Q 1.494005859375 0.31125 1.481255859375 0.2962500000000001 Q 1.458755859375 0.26550000000000007 1.420130859375 0.24487500000000006 Q 1.381505859375 0.22425000000000006 1.318505859375 0.22425000000000006 Q 1.254755859375 0.22425000000000006 1.206005859375 0.25312500000000004 Q 1.157255859375 0.28200000000000003 1.1317558593750001 0.31800000000000006 L 0.948755859375 0.20025000000000004 Q 0.982505859375 0.1522500000000001 1.039880859375 0.11625000000000008 Q 1.097255859375 0.08025000000000004 1.170380859375 0.06000000000000005 Q 1.243505859375 0.03975000000000006 1.323755859375 0.03975000000000006 Q 1.456505859375 0.03975000000000006 1.539005859375 0.08325000000000005 Q 1.621505859375 0.12675000000000003 1.661255859375 0.2047500000000001 Q 1.680005859375 0.24225000000000008 1.692005859375 0.2872500000000001 Q 1.704005859375 0.33225000000000005 1.708505859375 0.3907500000000001 Q 1.7115058593749999 0.44100000000000006 1.713005859375 0.4845000000000001 Q 1.714505859375 0.528 1.716005859375 0.5670000000000001 Q 1.717505859375 0.6240000000000001 1.728755859375 0.6412500000000001 Q 1.740005859375 0.6585000000000001 1.761005859375 0.6585000000000001 Q 1.780505859375 0.6585000000000001 1.795880859375 0.6476250000000001 Q 1.811255859375 0.63675 1.815755859375 0.6187500000000001 L 1.8937558593750001 0.7680000000000001 Q 1.885505859375 0.8025000000000001 1.8472558593750001 0.8257500000000001 Q 1.809005859375 0.8490000000000001 1.750505859375 0.8490000000000001 Q 1.707755859375 0.8490000000000001 1.669505859375 0.8343750000000001 Q 1.631255859375 0.8197500000000001 1.606505859375 0.7946250000000001 Q 1.5817558593749999 0.7695000000000001 1.5772558593750001 0.7372500000000001 Q 1.5652558593750001 0.76575 1.527005859375 0.7931250000000001 Q 1.4887558593749999 0.8205000000000001 1.428755859375 0.8381250000000001 Q 1.368755859375 0.8557500000000001 1.288505859375 0.8557500000000001 M 1.338755859375 0.6795000000000001 Q 1.374005859375 0.6795000000000001 1.411130859375 0.668625 Q 1.4482558593750001 0.6577500000000001 1.478630859375 0.6412500000000001 Q 1.509005859375 0.6247500000000001 1.525505859375 0.6075 Q 1.5240058593749999 0.5842500000000002 1.522880859375 0.5595000000000001 Q 1.521755859375 0.5347500000000001 1.522505859375 0.5175000000000001 Q 1.506005859375 0.51075 1.4598808593750001 0.5028750000000001 Q 1.4137558593750001 0.49500000000000005 1.363505859375 0.49500000000000005 Q 1.317755859375 0.49500000000000005 1.2780058593749999 0.50475 Q 1.238255859375 0.5145000000000001 1.213130859375 0.5347500000000001 Q 1.188005859375 0.555 1.188005859375 0.58725 Q 1.188005859375 0.62175 1.206755859375 0.6420000000000001 Q 1.2255058593750001 0.6622500000000001 1.259255859375 0.6708750000000001 Q 1.293005859375 0.6795000000000001 1.338755859375 0.6795000000000001 M 2.205038818359375 0.8377500000000001 Q 2.121788818359375 0.8377500000000001 2.067788818359375 0.7998750000000001 Q 2.013788818359375 0.7620000000000001 1.983413818359375 0.6963750000000001 Q 1.953038818359375 0.6307500000000001 1.940663818359375 0.54525 Q 1.928288818359375 0.45975000000000005 1.928288818359375 0.36450000000000005 Q 1.928288818359375 0.2872500000000001 1.933913818359375 0.20662500000000006 Q 1.939538818359375 0.1260000000000001 1.947788818359375 0.04800000000000004 Q 1.995038818359375 0.04800000000000004 2.055413818359375 0.051000000000000045 Q 2.115788818359375 0.05400000000000005 2.1645388183593752 0.05775000000000008 Q 2.156288818359375 0.14850000000000008 2.151788818359375 0.23025000000000007 Q 2.147288818359375 0.31200000000000006 2.147288818359375 0.37950000000000006 Q 2.147288818359375 0.45150000000000007 2.154788818359375 0.50475 Q 2.162288818359375 0.558 2.180288818359375 0.586875 Q 2.198288818359375 0.61575 2.229788818359375 0.61575 Q 2.257538818359375 0.61575 2.277413818359375 0.5906250000000001 Q 2.297288818359375 0.5655000000000001 2.310038818359375 0.5208750000000001 Q 2.322788818359375 0.47625000000000006 2.3291638183593752 0.4166250000000001 Q 2.335538818359375 0.3570000000000001 2.335538818359375 0.28875000000000006 Q 2.335538818359375 0.23775000000000002 2.334788818359375 0.17775000000000007 Q 2.334038818359375 0.11775000000000002 2.331788818359375 0.06225000000000003 Q 2.353538818359375 0.06225000000000003 2.391788818359375 0.06262500000000004 Q 2.430038818359375 0.06300000000000006 2.468663818359375 0.06375000000000008 Q 2.507288818359375 0.06450000000000011 2.531288818359375 0.06600000000000006 Q 2.531288818359375 0.09375000000000011 2.531288818359375 0.12150000000000005 Q 2.531288818359375 0.1492500000000001 2.531288818359375 0.17625000000000002 Q 2.531288818359375 0.28500000000000003 2.533913818359375 0.3712500000000001 Q 2.536538818359375 0.4575000000000001 2.545913818359375 0.5178750000000001 Q 2.555288818359375 0.5782500000000002 2.574788818359375 0.60975 Q 2.594288818359375 0.6412500000000001 2.628038818359375 0.6412500000000001 Q 2.659538818359375 0.6412500000000001 2.6805388183593752 0.6138750000000001 Q 2.701538818359375 0.5865 2.7146638183593748 0.5370000000000001 Q 2.7277888183593753 0.4875000000000001 2.733413818359375 0.4211250000000001 Q 2.739038818359375 0.35475000000000007 2.739038818359375 0.2782500000000001 Q 2.739038818359375 0.24675000000000002 2.739038818359375 0.21112500000000012 Q 2.739038818359375 0.1755000000000001 2.7382888183593748 0.1372500000000001 Q 2.737538818359375 0.09900000000000009 2.736038818359375 0.06225000000000003 Q 2.757788818359375 0.06225000000000003 2.783288818359375 0.06225000000000003 Q 2.8087888183593748 0.06225000000000003 2.835038818359375 0.06225000000000003 Q 2.859038818359375 0.06225000000000003 2.8924138183593753 0.06375000000000008 Q 2.9257888183593748 0.06525000000000003 2.944538818359375 0.06675000000000009 Q 2.946788818359375 0.09750000000000003 2.9490388183593748 0.1406250000000001 Q 2.951288818359375 0.18375000000000008 2.952788818359375 0.22612500000000002 Q 2.954288818359375 0.26850000000000007 2.954288818359375 0.29775000000000007 Q 2.954288818359375 0.39150000000000007 2.943038818359375 0.47325000000000006 Q 2.931788818359375 0.555 2.908538818359375 0.6210000000000001 Q 2.885288818359375 0.687 2.848163818359375 0.7342500000000001 Q 2.811038818359375 0.7815000000000001 2.758913818359375 0.806625 Q 2.706788818359375 0.8317500000000001 2.637788818359375 0.8317500000000001 Q 2.577788818359375 0.8317500000000001 2.537288818359375 0.8115000000000001 Q 2.496788818359375 0.7912500000000001 2.472038818359375 0.7593750000000001 Q 2.4472888183593753 0.7275 2.434163818359375 0.69225 Q 2.421038818359375 0.657 2.416163818359375 0.6262500000000001 Q 2.411288818359375 0.5955000000000001 2.4097888183593748 0.5782500000000002 L 2.455538818359375 0.5857500000000001 Q 2.454788818359375 0.6165 2.440163818359375 0.6592500000000001 Q 2.425538818359375 0.7020000000000001 2.395538818359375 0.7428750000000001 Q 2.365538818359375 0.7837500000000001 2.318663818359375 0.8107500000000001 Q 2.271788818359375 0.8377500000000001 2.205038818359375 0.8377500000000001 M 3.387053466796875 0.9022500000000001 Q 3.299303466796875 0.9022500000000001 3.226178466796875 0.8808750000000001 Q 3.153053466796875 0.8595 3.102428466796875 0.8306250000000001 Q 3.051803466796875 0.8017500000000001 3.029303466796875 0.7785000000000001 Q 3.033803466796875 0.7642500000000001 3.046928466796875 0.7368750000000001 Q 3.060053466796875 0.7095 3.078053466796875 0.6772500000000001 Q 3.096053466796875 0.645 3.114053466796875 0.6172500000000001 Q 3.132053466796875 0.5895000000000001 3.146303466796875 0.5760000000000001 Q 3.182303466796875 0.6067500000000001 3.224303466796875 0.6363750000000001 Q 3.266303466796875 0.6660000000000001 3.310553466796875 0.6847500000000001 Q 3.354803466796875 0.7035 3.393053466796875 0.7035 Q 3.423053466796875 0.7035 3.447053466796875 0.695625 Q 3.471053466796875 0.6877500000000001 3.484928466796875 0.672 Q 3.498803466796875 0.6562500000000001 3.498803466796875 0.6330000000000001 Q 3.498803466796875 0.6060000000000001 3.472928466796875 0.580875 Q 3.447053466796875 0.5557500000000001 3.406553466796875 0.53325 Q 3.366053466796875 0.51075 3.321803466796875 0.4927500000000001 Q 3.261053466796875 0.4680000000000001 3.208553466796875 0.4346250000000001 Q 3.156053466796875 0.40125000000000005 3.123803466796875 0.3521250000000001 Q 3.091553466796875 0.30300000000000005 3.091553466796875 0.22950000000000004 Q 3.091553466796875 0.15450000000000008 3.135803466796875 0.10350000000000004 Q 3.180053466796875 0.0525000000000001 3.251678466796875 0.026250000000000107 Q 3.323303466796875 1.1102230246251565e-16 3.405053466796875 1.1102230246251565e-16 Q 3.482303466796875 1.1102230246251565e-16 3.561803466796875 0.021375000000000033 Q 3.641303466796875 0.042750000000000066 3.691553466796875 0.08250000000000002 Q 3.687053466796875 0.09675000000000011 3.672428466796875 0.1260000000000001 Q 3.657803466796875 0.1552500000000001 3.637178466796875 0.18862500000000004 Q 3.616553466796875 0.2220000000000001 3.593303466796875 0.24975000000000003 Q 3.5625534667968752 0.22350000000000003 3.5160534667968752 0.19950000000000012 Q 3.469553466796875 0.1755000000000001 3.418553466796875 0.1755000000000001 Q 3.393053466796875 0.1755000000000001 3.367928466796875 0.18075000000000008 Q 3.342803466796875 0.18600000000000005 3.326678466796875 0.19950000000000012 Q 3.310553466796875 0.21300000000000008 3.310553466796875 0.23625000000000007 Q 3.310553466796875 0.25875000000000004 3.327803466796875 0.27637500000000004 Q 3.345053466796875 0.29400000000000004 3.378428466796875 0.3105000000000001 Q 3.411803466796875 0.32700000000000007 3.456803466796875 0.3450000000000001 Q 3.501803466796875 0.3630000000000001 3.548303466796875 0.3873750000000001 Q 3.594803466796875 0.41175000000000006 3.6341784667968753 0.44550000000000006 Q 3.673553466796875 0.47925000000000006 3.697553466796875 0.5238750000000001 Q 3.721553466796875 0.5685 3.721553466796875 0.6262500000000001 Q 3.721553466796875 0.7185000000000001 3.675803466796875 0.78 Q 3.630053466796875 0.8415000000000001 3.553928466796875 0.8718750000000001 Q 3.477803466796875 0.9022500000000001 3.387053466796875 0.9022500000000001 M 4.953038818359375 0.684 Q 4.930538818359375 0.7230000000000001 4.884788818359375 0.7612500000000001 Q 4.839038818359375 0.7995000000000001 4.7715388183593745 0.8250000000000001 Q 4.704038818359375 0.8505 4.616288818359375 0.8505 Q 4.502288818359375 0.8505 4.419038818359375 0.7938750000000001 Q 4.335788818359375 0.7372500000000001 4.290413818359375 0.6431250000000001 Q 4.245038818359375 0.5490000000000002 4.245038818359375 0.43650000000000005 Q 4.245038818359375 0.31800000000000006 4.291913818359375 0.22425000000000006 Q 4.338788818359375 0.13050000000000006 4.424288818359375 0.0757500000000001 Q 4.509788818359375 0.02100000000000002 4.626788818359375 0.02100000000000002 Q 4.696538818359375 0.02100000000000002 4.755038818359375 0.042750000000000066 Q 4.813538818359375 0.06450000000000011 4.858163818359375 0.10425000000000006 Q 4.902788818359375 0.14400000000000002 4.932038818359375 0.19725000000000004 L 4.768538818359375 0.28875000000000006 Q 4.766288818359375 0.28275000000000006 4.758413818359375 0.27 Q 4.750538818359375 0.2572500000000001 4.735538818359375 0.2430000000000001 Q 4.720538818359375 0.22875000000000012 4.696163818359375 0.21900000000000008 Q 4.671788818359375 0.20925000000000005 4.635788818359375 0.20925000000000005 Q 4.581788818359375 0.20925000000000005 4.544288818359375 0.23250000000000004 Q 4.506788818359375 0.25575000000000003 4.487663818359375 0.2985000000000001 Q 4.468538818359375 0.34125000000000005 4.468538818359375 0.3990000000000001 Q 4.468538818359375 0.44700000000000006 4.482788818359375 0.49537500000000007 Q 4.497038818359375 0.5437500000000001 4.530788818359375 0.5760000000000001 Q 4.564538818359375 0.6082500000000001 4.623788818359375 0.6082500000000001 Q 4.659038818359375 0.6082500000000001 4.689038818359375 0.5962500000000001 Q 4.719038818359375 0.5842500000000002 4.741163818359375 0.5673750000000001 Q 4.763288818359375 0.5505000000000001 4.776788818359375 0.5355000000000001 Q 4.790288818359375 0.5205000000000001 4.793288818359375 0.5152500000000001 L 4.953038818359375 0.684 M 5.37303955078125 0.8557500000000001 Q 5.28078955078125 0.8557500000000001 5.20428955078125 0.8306250000000001 Q 5.12778955078125 0.8055000000000001 5.08241455078125 0.7488750000000001 Q 5.03703955078125 0.69225 5.03703955078125 0.5985 Q 5.03703955078125 0.50475 5.08991455078125 0.4473750000000001 Q 5.14278955078125 0.39000000000000007 5.22941455078125 0.3641250000000001 Q 5.31603955078125 0.33825000000000005 5.41578955078125 0.33825000000000005 Q 5.45478955078125 0.33825000000000005 5.49078955078125 0.34425000000000006 Q 5.52678955078125 0.35025000000000006 5.55416455078125 0.3585000000000001 Q 5.58153955078125 0.3667500000000001 5.59353955078125 0.3742500000000001 Q 5.59278955078125 0.35475000000000007 5.58566455078125 0.3330000000000001 Q 5.57853955078125 0.31125 5.5657895507812505 0.2962500000000001 Q 5.54328955078125 0.26550000000000007 5.50466455078125 0.24487500000000006 Q 5.46603955078125 0.22425000000000006 5.40303955078125 0.22425000000000006 Q 5.33928955078125 0.22425000000000006 5.29053955078125 0.25312500000000004 Q 5.24178955078125 0.28200000000000003 5.21628955078125 0.31800000000000006 L 5.03328955078125 0.20025000000000004 Q 5.06703955078125 0.1522500000000001 5.12441455078125 0.11625000000000008 Q 5.18178955078125 0.08025000000000004 5.25491455078125 0.06000000000000005 Q 5.32803955078125 0.03975000000000006 5.40828955078125 0.03975000000000006 Q 5.5410395507812495 0.03975000000000006 5.62353955078125 0.08325000000000005 Q 5.7060395507812505 0.12675000000000003 5.74578955078125 0.2047500000000001 Q 5.76453955078125 0.24225000000000008 5.77653955078125 0.2872500000000001 Q 5.78853955078125 0.33225000000000005 5.79303955078125 0.3907500000000001 Q 5.79603955078125 0.44100000000000006 5.79753955078125 0.4845000000000001 Q 5.79903955078125 0.528 5.8005395507812505 0.5670000000000001 Q 5.80203955078125 0.6240000000000001 5.81328955078125 0.6412500000000001 Q 5.82453955078125 0.6585000000000001 5.84553955078125 0.6585000000000001 Q 5.86503955078125 0.6585000000000001 5.88041455078125 0.6476250000000001 Q 5.89578955078125 0.63675 5.90028955078125 0.6187500000000001 L 5.97828955078125 0.7680000000000001 Q 5.97003955078125 0.8025000000000001 5.93178955078125 0.8257500000000001 Q 5.8935395507812505 0.8490000000000001 5.83503955078125 0.8490000000000001 Q 5.79228955078125 0.8490000000000001 5.7540395507812505 0.8343750000000001 Q 5.71578955078125 0.8197500000000001 5.69103955078125 0.7946250000000001 Q 5.66628955078125 0.7695000000000001 5.66178955078125 0.7372500000000001 Q 5.64978955078125 0.76575 5.61153955078125 0.7931250000000001 Q 5.57328955078125 0.8205000000000001 5.51328955078125 0.8381250000000001 Q 5.45328955078125 0.8557500000000001 5.37303955078125 0.8557500000000001 M 5.42328955078125 0.6795000000000001 Q 5.45853955078125 0.6795000000000001 5.49566455078125 0.668625 Q 5.53278955078125 0.6577500000000001 5.56316455078125 0.6412500000000001 Q 5.59353955078125 0.6247500000000001 5.61003955078125 0.6075 Q 5.60853955078125 0.5842500000000002 5.60741455078125 0.5595000000000001 Q 5.60628955078125 0.5347500000000001 5.60703955078125 0.5175000000000001 Q 5.59053955078125 0.51075 5.54441455078125 0.5028750000000001 Q 5.49828955078125 0.49500000000000005 5.44803955078125 0.49500000000000005 Q 5.40228955078125 0.49500000000000005 5.36253955078125 0.50475 Q 5.32278955078125 0.5145000000000001 5.29766455078125 0.5347500000000001 Q 5.27253955078125 0.555 5.27253955078125 0.58725 Q 5.27253955078125 0.62175 5.29128955078125 0.6420000000000001 Q 5.31003955078125 0.6622500000000001 5.34378955078125 0.6708750000000001 Q 5.3775395507812505 0.6795000000000001 5.42328955078125 0.6795000000000001 M 6.2310725097656245 0.17100000000000004 Q 6.248322509765625 0.1372500000000001 6.283947509765625 0.10650000000000004 Q 6.319572509765625 0.0757500000000001 6.368697509765625 0.05625000000000002 Q 6.417822509765625 0.03675000000000006 6.473322509765625 0.03675000000000006 Q 6.507072509765625 0.03675000000000006 6.541572509765625 0.043500000000000094 Q 6.576072509765625 0.05025000000000002 6.591822509765625 0.06150000000000011 L 6.545322509765625 0.30000000000000004 Q 6.528822509765625 0.2932500000000001 6.502572509765625 0.28500000000000003 Q 6.476322509765625 0.27675000000000005 6.4425725097656255 0.27675000000000005 Q 6.408072509765625 0.27675000000000005 6.375447509765625 0.28837500000000005 Q 6.342822509765625 0.30000000000000004 6.315072509765625 0.32100000000000006 Q 6.287322509765625 0.3420000000000001 6.266322509765625 0.3712500000000001 Q 6.273822509765625 0.41475000000000006 6.283197509765625 0.48225000000000007 Q 6.292572509765625 0.5497500000000001 6.300822509765625 0.6210000000000001 Q 6.309072509765625 0.69225 6.314322509765625 0.75075 Q 6.319572509765625 0.80925 6.319572509765625 0.83625 Q 6.267072509765625 0.8430000000000001 6.198072509765625 0.8452500000000001 Q 6.129072509765625 0.8475 6.065322509765625 0.8467500000000001 Q 6.065322509765625 0.7837500000000001 6.061947509765625 0.7035 Q 6.058572509765625 0.6232500000000001 6.052572509765625 0.5358750000000001 Q 6.046572509765625 0.44850000000000007 6.037947509765625 0.36337500000000006 Q 6.029322509765625 0.2782500000000001 6.018447509765625 0.20550000000000002 Q 6.007572509765625 0.13275000000000003 5.995572509765625 0.0817500000000001 Q 6.031572509765625 0.07125000000000004 6.075072509765625 0.06225000000000003 Q 6.118572509765625 0.05325000000000002 6.153822509765625 0.04762500000000003 Q 6.189072509765625 0.04200000000000004 6.198822509765625 0.04125000000000012 Q 6.207822509765625 0.06225000000000003 6.219072509765625 0.10312500000000002 Q 6.230322509765625 0.14400000000000002 6.2310725097656245 0.17100000000000004 M 7.377888427734375 0.7087500000000001 Q 7.356888427734375 0.7342500000000001 7.325388427734375 0.7590000000000001 Q 7.293888427734375 0.7837500000000001 7.250013427734375 0.803625 Q 7.206138427734375 0.8235000000000001 7.149888427734375 0.8351250000000001 Q 7.093638427734375 0.8467500000000001 7.023888427734375 0.8467500000000001 Q 6.910638427734375 0.8467500000000001 6.822888427734375 0.803625 Q 6.735138427734375 0.7605000000000001 6.686013427734375 0.6753750000000001 Q 6.636888427734375 0.59025 6.636888427734375 0.4635000000000001 Q 6.636888427734375 0.3367500000000001 6.687888427734375 0.2426250000000001 Q 6.738888427734375 0.14850000000000008 6.830388427734375 0.0963750000000001 Q 6.921888427734375 0.04425000000000001 7.044138427734375 0.04425000000000001 Q 7.198638427734375 0.04425000000000001 7.287513427734375 0.13012500000000005 Q 7.3763884277343745 0.21600000000000008 7.380138427734375 0.36750000000000005 Q 7.380888427734375 0.39525000000000005 7.379388427734375 0.41775000000000007 Q 7.377888427734375 0.4402500000000001 7.373388427734375 0.46575000000000005 Q 7.362138427734375 0.4650000000000001 7.325388427734375 0.46425000000000005 Q 7.288638427734375 0.4635000000000001 7.242513427734375 0.4623750000000001 Q 7.196388427734375 0.46125000000000005 7.155513427734375 0.4605000000000001 Q 7.114638427734375 0.45975000000000005 7.0951384277343745 0.45975000000000005 Q 7.029888427734375 0.45975000000000005 6.968763427734375 0.46575000000000005 Q 6.907638427734375 0.47175000000000006 6.866388427734375 0.4785000000000001 Q 6.866388427734375 0.49200000000000005 6.868263427734375 0.505125 Q 6.870138427734375 0.5182500000000001 6.873888427734375 0.5302500000000001 Q 6.883638427734375 0.561 6.9080134277343745 0.5827500000000001 Q 6.9323884277343755 0.6045 6.966513427734375 0.616125 Q 7.000638427734375 0.62775 7.038888427734375 0.62775 Q 7.073388427734375 0.62775 7.102263427734375 0.619125 Q 7.131138427734375 0.6105 7.155138427734375 0.5962500000000001 Q 7.179138427734375 0.5820000000000001 7.199013427734375 0.5651250000000001 Q 7.218888427734375 0.5482500000000001 7.2361384277343745 0.5317500000000001 Q 7.240638427734375 0.5355000000000001 7.259388427734375 0.5538750000000001 Q 7.278138427734375 0.5722500000000001 7.301388427734375 0.598875 Q 7.324638427734375 0.6255000000000001 7.345638427734375 0.65475 Q 7.366638427734375 0.684 7.377888427734375 0.7087500000000001 M 6.874638427734375 0.33825000000000005 Q 6.908388427734375 0.3330000000000001 6.957888427734375 0.3285000000000001 Q 7.007388427734375 0.32400000000000007 7.0726384277343755 0.32400000000000007 Q 7.107888427734375 0.32400000000000007 7.135263427734375 0.3247500000000001 Q 7.162638427734375 0.3255000000000001 7.173888427734375 0.32625000000000004 Q 7.173888427734375 0.3105000000000001 7.169388427734375 0.29175000000000006 Q 7.163388427734375 0.2662500000000001 7.145763427734375 0.2430000000000001 Q 7.128138427734375 0.2197500000000001 7.100763427734375 0.20550000000000002 Q 7.073388427734375 0.19125000000000003 7.035138427734375 0.19125000000000003 Q 6.987138427734375 0.19125000000000003 6.951513427734375 0.21225000000000005 Q 6.915888427734375 0.23325000000000007 6.896388427734375 0.267 Q 6.876888427734375 0.3007500000000001 6.874638427734375 0.33825000000000005" fill="#382d5e" fill-rule="nonzero"></path></g><g></g></g><defs><clipPath id="SvgjsClipPath31715"><path d=" M 0.4975904326148788 -4.638289366269575 h 6.432950238285867 v 4.388289366269575 h -6.432950238285867 Z"></path></clipPath><clipPath id="d545e2e72-e852-4959-a0e4-cab680a5662cc704f581-b7fd-41d5-81b7-d54fd5e18d15"><path d=" M 0.7005719457018336 -4.578641051095776 L 6.870621282972715 -4.578641051095776 L 6.870621282972715 -0.30964620982045066 L 0.7005719457018336 -0.30964620982045066 Z"></path></clipPath><clipPath id="c545e2e72-e852-4959-a0e4-cab680a5662cc704f581-b7fd-41d5-81b7-d54fd5e18d15"><path d=" M 0.6055351785681791 -4.673784202670252 L 6.965977203428834 -4.673784202670252 L 6.965977203428834 -0.21453851972624793 L 0.6055351785681791 -0.21453851972624793 Z"></path></clipPath><clipPath id="b545e2e72-e852-4959-a0e4-cab680a5662cc704f581-b7fd-41d5-81b7-d54fd5e18d15"><path d=" M 0.46212895234112705 -4.673748741189978 L 6.965977203428834 -4.673748741189978 L 6.965977203428834 -0.21453851972624793 L 0.46212895234112705 -0.21453851972624793 Z"></path></clipPath></defs></svg>