<svg width="1920" height="1080" viewBox="0 0 1920 1080" xmlns="http://www.w3.org/2000/svg"><rect width="1920" height="1080" fill="#edf2f1"/><path d="M 0,1080 C 0,1080 0,180 0,180 C 59.719303777204686,213.6948580350576 119.43860755440937,247.38971607011518 159,233 C 198.56139244559063,218.61028392988482 217.9648735595672,156.13599375459683 257,132 C 296.0351264404328,107.86400624540317 354.7018982073219,122.06630891149752 402,144 C 449.2981017926781,165.93369108850248 485.2275336111452,195.59877059941311 524,208 C 562.7724663888548,220.40122940058689 604.3879673480975,215.53860869085003 663,202 C 721.6120326519025,188.46139130914997 797.2205969964648,166.24679463718672 841,163 C 884.7794030035352,159.75320536281328 896.7296446660429,175.47421276040296 942,180 C 987.2703553339571,184.52578723959704 1065.860824339364,177.85635432120145 1114,186 C 1162.139175660636,194.14364567879855 1179.8270579765015,217.10036995479112 1226,215 C 1272.1729420234985,212.89963004520888 1346.8309437546309,185.74216585963407 1394,168 C 1441.1690562453691,150.25783414036593 1460.8491670049748,141.93096660667263 1498,141 C 1535.1508329950252,140.06903339332737 1589.7723882254706,146.53396771367537 1643,165 C 1696.2276117745294,183.46603228632463 1748.0612800931424,213.93316253862588 1800,209 C 1851.9387199068576,204.06683746137412 1903.9824914019591,163.73338213182117 1924,153 C 1944.0175085980409,142.26661786817883 1932.0087542990204,161.13330893408943 1920,180 C 1920,180 1920,1080 1920,1080 Z" fill="#9adedf" opacity="0.09999999999999999"/><path d="M 0,1080 C 0,1080 0,360 0,360 C 51.54923064108718,330.37156023032776 103.09846128217436,300.7431204606555 151,304 C 198.90153871782564,307.2568795393445 243.15538551238978,343.39907838770563 278,350 C 312.8446144876102,356.60092161229437 338.27999666826634,333.660565988522 387,335 C 435.72000333173366,336.339434011478 507.72462781454476,361.95865765820656 560,352 C 612.2753721854552,342.04134234179344 644.8214920735546,296.5048033786518 690,295 C 735.1785079264454,293.4951966213482 792.9894038912365,336.0221288271864 836,350 C 879.0105961087635,363.9778711728136 907.2208923614987,349.4066813126027 949,364 C 990.7791076385013,378.5933186873973 1046.127026662769,422.3511459224031 1103,417 C 1159.872973337231,411.6488540775969 1218.2710009874254,357.1887349977852 1258,338 C 1297.7289990125746,318.8112650022148 1318.7889693875293,334.89391408645577 1361,336 C 1403.2110306124707,337.10608591354423 1466.573121462458,323.2356086563917 1518,346 C 1569.426878537542,368.7643913436083 1608.9185447626398,428.1636512879775 1654,426 C 1699.0814552373602,423.8363487120225 1749.752699486982,360.1097861916984 1803,335 C 1856.247300513018,309.8902138083016 1912.0706572894335,323.39720394522897 1932,334 C 1951.9293427105665,344.60279605477103 1935.9646713552834,352.3013980273855 1920,360 C 1920,360 1920,1080 1920,1080 Z" fill="#9adedf" opacity="0.19999999999999998"/><path d="M 0,1080 C 0,1080 0,540 0,540 C 37.09587943505663,538.2924630845052 74.19175887011326,536.5849261690106 124,531 C 173.80824112988674,525.4150738309894 236.32884395460354,515.9527584084628 277,512 C 317.67115604539646,508.0472415915372 336.4928653114726,509.6040401971382 385,498 C 433.5071346885274,486.3959598028618 511.699694799506,461.63108080298434 561,488 C 610.300305200494,514.3689191970157 630.7083554905032,591.8716365909245 672,594 C 713.2916445094968,596.1283634090755 775.4668832384815,522.8823728333177 821,501 C 866.5331167615185,479.1176271666823 895.4241115555704,508.5988720758048 935,534 C 974.5758884444296,559.4011279241952 1024.8366705392366,580.7221388634634 1078,567 C 1131.1633294607634,553.2778611365366 1187.2292062874833,504.51257247034135 1241,482 C 1294.7707937125167,459.48742752965865 1346.2465043108296,463.2275712551713 1392,483 C 1437.7534956891704,502.7724287448287 1477.7847764691976,538.5771425089735 1524,532 C 1570.2152235308024,525.4228574910265 1622.61438981238,476.4638587089349 1666,476 C 1709.38561018762,475.5361412910651 1743.7576642812824,523.5674226552868 1792,526 C 1840.2423357187176,528.4325773447132 1902.3549530624907,485.2664506699181 1926,480 C 1949.6450469375093,474.7335493300819 1934.8225234687548,507.36677466504096 1920,540 C 1920,540 1920,1080 1920,1080 Z" fill="#9adedf" opacity="0.3"/><path d="M 0,1080 C 0,1080 0,720 0,720 C 56.945983624757346,708.3081309042714 113.89196724951469,696.6162618085426 160,686 C 206.1080327504853,675.3837381914574 241.37811462669862,665.8430836701008 283,689 C 324.6218853733014,712.1569163298992 372.5955742436908,768.0114035110539 421,765 C 469.4044257563092,761.9885964889461 518.2395883985383,700.1113022856835 558,669 C 597.7604116014617,637.8886977143165 628.4460721621559,637.5433873462125 666,675 C 703.5539278378441,712.4566126537875 747.9761229528381,787.7151483294664 807,781 C 866.0238770471619,774.2848516705336 939.6494360264923,685.5960193359216 981,676 C 1022.3505639735077,666.4039806640784 1031.426132941193,735.9007743268471 1071,742 C 1110.573867058807,748.0992256731529 1180.6460322087364,690.8008833566896 1237,690 C 1293.3539677912636,689.1991166433104 1335.9897382238619,744.8956922463939 1373,771 C 1410.0102617761381,797.1043077536061 1441.3950148958158,793.6163476577343 1484,781 C 1526.6049851041842,768.3836523422657 1580.430202192874,746.6389171226692 1630,741 C 1679.569797807126,735.3610828773308 1724.8841763326877,745.8279838515892 1773,755 C 1821.1158236673123,764.1720161484108 1872.0330924763748,772.0491474709744 1897,766 C 1921.9669075236252,759.9508525290256 1920.9834537618126,739.9754262645129 1920,720 C 1920,720 1920,1080 1920,1080 Z" fill="#9adedf" opacity="0.39999999999999997"/><path d="M 0,1080 C 0,1080 0,900 0,900 C 36.49923220882759,936.0255315039377 72.99846441765519,972.0510630078754 121,957 C 169.00153558234481,941.9489369921246 228.50537453820687,875.821279472436 284,870 C 339.49462546179313,864.178720527564 390.98003742951727,918.6638191023809 432,936 C 473.01996257048273,953.3361808976191 503.57447574372395,933.523444118041 547,928 C 590.425524256276,922.476555881959 646.7220595955869,931.242404425455 692,920 C 737.2779404044131,908.757595574545 771.5372858739286,877.5069381801386 810,889 C 848.4627141260714,900.4930618198614 891.1287969086986,954.7298428539905 941,958 C 990.8712030913014,961.2701571460095 1047.947526491276,913.5736904038996 1092,883 C 1136.052473508724,852.4263095961004 1167.0810971261972,838.9753955304109 1214,856 C 1260.9189028738028,873.0246044695891 1323.7280850039353,920.5247274744569 1373,913 C 1422.2719149960647,905.4752725255431 1458.0065628580617,842.9256945717616 1509,854 C 1559.9934371419383,865.0743054282384 1626.2456635638187,949.7724942384968 1668,946 C 1709.7543364361813,942.2275057615032 1727.0107828866644,849.9843284742508 1768,850 C 1808.9892171133356,850.0156715257492 1873.7112048895244,942.2901918644997 1903,966 C 1932.2887951104756,989.7098081355003 1926.144397555238,944.8549040677501 1920,900 C 1920,900 1920,1080 1920,1080 Z" fill="#9adedf" opacity="0.49999999999999994"/></svg>